<svg width="22" height="28" viewBox="0 0 22 28" fill="none" xmlns="http://www.w3.org/2000/svg">
    <path fill-rule="evenodd" clip-rule="evenodd" d="M0 25.6667V11.4074C0 11.1296 0.107123 10.8667 0.292873 10.6741L10.2929 0.303722C10.6834 -0.101241 11.3166 -0.101241 11.7071 0.303722L21.7071 10.6741C21.8929 10.8667 22 11.1296 22 11.4074V25.6667C22 26.0861 21.7564 26.4643 21.3826 26.6248C21.009 26.7854 20.5789 26.6966 20.2929 26.4L16.625 22.5963L11.7071 27.6963C11.3166 28.1012 10.6834 28.1012 10.2929 27.6963L5.375 22.5963L1.70712 26.4C1.42112 26.6966 0.990999 26.7854 0.617374 26.6248C0.243624 26.4643 0 26.0861 0 25.6667ZM2 13.9111V16.163L5.375 19.663L6.46075 18.537L2.79287 14.7333L2.08587 14.0001L2 13.9111ZM19.5858 11.4074L11 2.50367L2.41425 11.4074L3.50013 12.5335L10.293 5.48904C10.6836 5.08407 11.3167 5.08407 11.7072 5.48904L18.5 12.5334L19.5858 11.4074ZM20 16.163V13.9111L19.9142 14L19.9144 14.0001L15.5394 18.5372L16.625 19.663L20 16.163ZM20 19.0963L18.0392 21.1296L20 23.1631V19.0963ZM6.78925 21.1296L11 25.4963L15.2108 21.1296L14.1251 20.0038L11.7072 22.5112C11.3167 22.9162 10.6836 22.9162 10.293 22.5112L7.875 20.0037L6.78925 21.1296ZM2 19.0963V23.1631L3.96075 21.1296L2 19.0963ZM8.50013 10.2816L4.91438 14.0001L11.0001 20.3114L17.086 14.0001L13.5001 10.2814L11.7072 12.1409C11.3166 12.5458 10.6835 12.5458 10.293 12.1409L8.50013 10.2816ZM12.0859 8.81495L11.0001 7.68898L9.91438 8.81495L11.0001 9.94091L12.0859 8.81495Z" fill="#F6F1FE"/>
</svg>
